<?xml version="1.0" encoding="UTF-8"?>
<!DOCTYPE svg PUBLIC "-//W3C//DTD SVG 1.1//EN" "http://www.w3.org/Graphics/SVG/1.1/DTD/svg11.dtd">
<!-- Creator: CorelDRAW X7 -->
<svg xmlns="http://www.w3.org/2000/svg" xml:space="preserve" width="3000px" height="3000px" version="1.1" style="shape-rendering:geometricPrecision; text-rendering:geometricPrecision; image-rendering:optimizeQuality; fill-rule:evenodd; clip-rule:evenodd"
viewBox="0 0 3000 3000"
 xmlns:xlink="http://www.w3.org/1999/xlink">
 <defs>
  <style type="text/css">
   <![CDATA[
    .fil0 {fill:#F7C31F;fill-rule:nonzero}
    .fil1 {fill:white;fill-rule:nonzero}
   ]]>
  </style>
 </defs>
 <g id="Layer_x0020_1">
  <metadata id="CorelCorpID_0Corel-Layer"/>
  <g id="_2389010384512">
   <path class="fil0" d="M3000 972c-2,66 -29,120 -82,161 -16,13 -36,20 -58,20 -19,0 -31,-9 -39,-26 -7,-17 -6,-33 9,-46 7,-6 8,-12 6,-21 -3,-14 -7,-28 -8,-42 -3,-50 4,-98 44,-133 22,-19 49,-23 77,-21 16,2 27,11 34,25 14,26 16,54 17,83z"/>
   <path class="fil1" d="M1961 902c-1,15 -13,33 -28,49 -26,28 -57,36 -94,27 -44,-11 -81,-33 -103,-74 -7,-12 -15,-26 -9,-41 8,-21 27,-29 46,-17 8,5 14,3 21,-2 34,-22 72,-29 112,-19 33,8 55,35 55,77z"/>
   <path class="fil1" d="M798 905c0,11 -12,28 -26,44 -27,31 -62,39 -101,28 -46,-14 -83,-38 -103,-82 -5,-11 -10,-22 -3,-36 11,-18 25,-24 44,-14 9,5 15,4 23,-1 34,-22 71,-29 110,-19 35,8 56,34 56,80z"/>
   <path class="fil1" d="M1835 2159c28,-33 73,-29 90,2 3,-2 5,-5 7,-7 17,-17 38,-22 61,-15 21,7 30,25 33,45 4,29 1,57 1,86 1,22 1,22 -22,22 -25,0 -25,0 -25,-24 0,-19 0,-39 0,-58 0,-7 0,-14 -3,-21 -3,-8 -8,-14 -18,-14 -9,-1 -16,3 -21,11 -4,6 -5,12 -5,19 0,25 0,50 1,75 0,11 -4,13 -13,12 -7,0 -14,0 -21,0 -10,1 -14,-1 -14,-12 1,-24 1,-48 0,-72 0,-4 0,-9 -1,-13 -3,-14 -11,-21 -22,-20 -11,0 -21,10 -23,22 0,4 0,9 0,13 0,16 0,32 0,48 -1,11 5,27 -3,32 -9,7 -26,2 -39,2 -8,0 -6,-6 -6,-10 0,-36 0,-72 0,-109 0,-8 0,-17 0,-26 -1,-5 1,-7 7,-7 4,0 9,0 14,0 19,0 19,0 22,19z"/>
   <path class="fil1" d="M2261 2159c13,-16 30,-23 50,-22 27,1 46,17 51,44 5,35 1,71 2,106 0,5 -3,5 -7,5 -11,0 -22,0 -33,0 -8,1 -9,-2 -9,-9 0,-25 0,-51 0,-76 0,-21 -9,-33 -24,-32 -16,0 -26,13 -26,32 0,25 -1,50 0,76 0,8 -3,10 -11,9 -9,0 -19,0 -29,0 -7,1 -9,-2 -9,-9 1,-26 1,-52 0,-78 0,-18 1,-36 -1,-53 0,-11 3,-13 13,-12 1,0 3,0 4,0 7,0 15,-1 22,1 9,2 1,13 7,18z"/>
   <path class="fil1" d="M1650 2259c12,-36 24,-71 36,-105 3,-10 21,-17 31,-11 4,2 0,6 -1,8 -9,26 -19,51 -29,77 -12,29 -23,59 -39,87 -11,20 -26,35 -47,43 -3,1 -9,6 -11,-2 -1,-7 -11,-15 1,-21 16,-8 28,-20 37,-34 6,-9 6,-17 2,-26 -17,-41 -33,-82 -50,-123 -3,-7 -4,-10 6,-10 24,1 20,-3 28,19 12,32 24,64 36,98z"/>
   <path class="fil1" d="M2696 2163c10,-14 21,-24 37,-27 14,-2 16,0 16,13 0,9 0,17 0,26 0,5 -1,6 -6,6 -31,0 -40,9 -40,39 0,21 -1,43 0,64 0,6 -2,9 -9,8 -11,0 -21,0 -32,0 -6,1 -8,-1 -8,-7 0,-46 0,-93 -1,-139 0,-4 2,-6 6,-6 10,0 19,0 29,0 5,0 6,2 7,6 0,6 1,11 1,17z"/>
   <path class="fil1" d="M2624 2216c0,23 0,45 0,68 0,6 -2,9 -8,8 -11,0 -22,0 -33,0 -7,1 -8,-2 -8,-8 0,-45 0,-91 0,-136 0,-6 1,-8 8,-8 11,1 22,1 33,0 6,0 8,2 8,8 0,22 0,45 0,68z"/>
   <path class="fil1" d="M2767 2216c0,-23 0,-45 0,-67 -1,-7 1,-9 8,-9 12,1 29,-4 37,2 8,7 2,24 2,36 1,34 0,68 1,102 0,11 -4,13 -13,12 -9,0 -18,0 -27,0 -7,1 -9,-2 -8,-8 0,-23 0,-46 0,-68z"/>
   <path class="fil1" d="M2599 2074c15,0 26,10 26,24 0,14 -11,23 -26,24 -15,0 -25,-10 -25,-24 0,-15 10,-24 25,-24z"/>
   <path class="fil1" d="M2791 2074c15,0 25,10 25,24 0,14 -11,24 -26,23 -15,0 -25,-10 -25,-24 0,-14 11,-23 26,-23z"/>
   <path class="fil1" d="M2821 1481c-6,-11 -14,-18 -28,-17 -12,2 -22,7 -27,19 -13,29 -25,58 -38,86 -24,53 -48,107 -78,157 -4,8 -9,16 -16,23 -10,11 -19,9 -25,-5 -9,-26 -13,-53 -10,-80 4,-40 7,-80 10,-120 4,-44 4,-87 3,-131 -1,-31 -7,-61 -23,-88 -32,-54 -82,-75 -142,-67 -51,8 -94,33 -130,68 -30,30 -48,67 -63,105 -6,17 -10,35 -22,49 -12,13 -23,12 -34,-1 -10,-11 -16,-23 -15,-38 3,-37 11,-73 18,-109 4,-19 11,-38 7,-59 -12,-54 -47,-88 -96,-110 -17,-7 -34,-6 -50,3 -17,10 -28,26 -36,44 -12,30 -17,61 -27,91 -33,102 -78,201 -128,296 -15,29 -30,58 -49,84 -5,7 -11,15 -20,14 -9,-1 -12,-11 -15,-19 -10,-23 -11,-47 -10,-71 0,-33 3,-66 10,-98 9,-42 20,-82 41,-120 19,-32 23,-67 15,-103 -10,-46 -39,-79 -78,-104 -33,-22 -65,-15 -91,14 -27,30 -43,66 -55,103 -22,68 -33,139 -38,210 -1,9 -1,19 -10,26 -24,18 -47,37 -71,55 -16,12 -33,25 -52,34 -11,5 -18,2 -22,-10 -2,-4 -2,-9 -3,-13 -1,-22 2,-43 6,-64 7,-34 19,-65 28,-98 13,-48 16,-96 -1,-144 -12,-33 -34,-57 -72,-64 -12,-2 -25,-5 -38,-7 -40,-5 -74,5 -103,32 -26,23 -41,52 -55,83 -24,53 -30,108 -18,164 11,50 32,94 62,135 3,4 7,7 4,14 -22,52 -38,107 -56,161 -10,26 -18,53 -35,77 -13,18 -28,18 -41,0 -11,-15 -18,-32 -24,-49 -27,-81 -45,-163 -62,-246 -11,-51 -20,-103 -26,-155 -4,-36 -8,-73 -18,-109 -16,-53 -46,-88 -110,-83 -31,2 -71,32 -80,62 -9,33 -18,66 -28,99 -23,79 -46,158 -77,235 -7,18 -16,36 -29,51 -4,4 -9,9 -15,7 -7,-1 -8,-8 -9,-14 -8,-36 -15,-71 -17,-108 -2,-31 -2,-62 5,-93 12,-60 38,-114 68,-167 2,-5 5,-9 4,-14 -3,-26 -7,-51 -18,-75 -17,-38 -48,-72 -106,-68 -12,1 -21,6 -29,15 -20,25 -31,54 -41,84 -22,65 -32,132 -51,198 -24,84 -47,169 -79,251 -10,26 -19,52 -40,71 -14,13 -27,12 -38,-3 -9,-11 -14,-24 -19,-37 -22,-63 -32,-128 -35,-194 -2,-49 -4,-99 -4,-149 -1,-87 0,-174 0,-261 0,-7 1,-14 4,-20 12,-22 23,-45 35,-67 57,-101 83,-210 83,-325 0,-19 -4,-37 -13,-54 -12,-24 -29,-38 -63,-27 -51,17 -88,52 -118,94 -49,70 -76,149 -98,229 -22,83 -33,167 -42,252 -6,61 -11,123 -13,184 -3,87 -1,174 13,261 10,55 25,108 57,154 46,70 109,110 197,105 29,-2 56,-11 79,-29 24,-21 43,-46 60,-73 13,-22 24,-45 35,-70 8,24 15,45 27,65 20,35 47,62 86,77 22,8 45,10 68,14 18,4 33,-2 45,-13 24,-22 40,-48 48,-78 14,-50 22,-101 33,-151 4,-19 8,-37 16,-55 1,-4 2,-8 7,-8 6,0 7,4 9,8 1,4 2,9 3,13 3,13 1,25 3,38 10,52 19,104 29,157 11,57 24,114 56,165 22,34 47,66 82,88 44,29 92,32 143,23 54,-10 100,-34 138,-72 37,-38 62,-84 81,-134 15,-40 25,-82 42,-121 7,-14 12,-29 23,-41 4,-4 8,-5 14,-4 20,2 39,2 59,-3 45,-11 84,-33 120,-61 7,-6 9,-5 12,2 7,15 11,29 16,44 7,25 9,51 14,76 17,76 101,134 180,125 20,-3 36,-10 48,-27 22,-33 35,-70 47,-107 13,-38 23,-77 33,-117 0,3 0,7 0,9 -2,28 -4,56 -7,83 -4,54 20,93 65,120 39,24 82,38 126,49 60,15 105,-10 125,-69 32,-91 63,-182 95,-274 8,-23 15,-46 26,-68 1,-3 3,-7 7,-6 4,0 5,4 6,7 1,3 1,6 2,9 5,24 5,48 6,72 2,43 2,86 5,128 3,52 14,101 34,148 11,25 22,51 43,69 23,19 48,36 76,46 51,18 91,9 120,-39 43,-72 82,-145 117,-221 22,-49 43,-99 56,-151 7,-29 11,-57 -5,-84zm-2599 -474c-12,-28 -16,-56 -14,-86 3,-55 20,-109 36,-162 4,-14 10,-27 18,-39 4,-5 8,-9 14,-12 12,-5 20,-1 24,11 3,10 1,21 3,32 -8,77 -16,155 -50,227 -5,11 -12,22 -21,31 -5,5 -7,4 -10,-2zm1092 424c-5,17 -13,32 -22,47 -6,9 -12,18 -20,29 -8,-24 -15,-45 -8,-68 3,-14 12,-24 26,-29 7,-3 14,-3 19,3 7,5 6,12 5,18z"/>
   <path class="fil1" d="M2545 2283c0,-27 0,-54 0,-81 0,-40 0,-81 0,-121 0,-8 -2,-10 -10,-10 -10,1 -20,1 -29,0 -8,0 -10,2 -10,10 1,23 0,46 0,70 -36,-27 -82,-16 -101,24 -14,27 -13,55 -1,83 5,11 12,20 22,26 27,19 57,15 84,-12 4,20 4,20 25,20 3,0 7,0 10,0 8,1 11,-1 10,-9zm-49 -68l0 0c0,6 0,11 0,17 -2,13 -11,23 -24,25 -12,3 -25,-3 -31,-14 -10,-18 -9,-38 1,-56 6,-11 20,-16 31,-14 13,4 22,14 23,27 0,5 0,10 0,15z"/>
   <path class="fil1" d="M2188 2286c-4,-31 -1,-63 -2,-94 -1,-30 -20,-49 -50,-54 -19,-4 -37,-2 -56,3 -23,6 -23,6 -16,30 2,7 4,10 12,5 13,-6 27,-8 42,-6 6,0 12,2 16,7 3,3 4,7 3,11 -1,5 -6,2 -9,2 -20,2 -41,5 -59,17 -17,11 -25,31 -21,51 4,20 19,34 38,37 21,3 39,-1 57,-19 -1,17 8,17 18,16 6,0 13,0 20,0 5,0 8,-1 7,-6zm-49 -54c0,18 -7,27 -21,30 -9,1 -17,-1 -21,-10 -4,-9 -2,-18 6,-24 9,-6 20,-8 31,-8 11,0 3,9 5,12z"/>
   <path class="fil1" d="M1562 2173c-12,-27 -40,-39 -69,-34 -16,3 -27,12 -39,25 0,-29 -1,-55 0,-81 0,-12 -6,-11 -15,-11 -9,-1 -14,0 -14,11 1,66 1,132 0,197 0,10 3,13 13,13 9,0 12,-3 11,-11 0,-4 -1,-8 3,-12 1,1 2,3 3,4 23,32 80,27 101,-6 20,-31 21,-63 6,-95zm-26 76c-9,19 -29,28 -49,23 -20,-4 -33,-21 -33,-42 0,-4 0,-8 0,-14 -1,-14 0,-29 12,-41 21,-23 57,-19 70,10 11,21 10,43 0,64z"/>
  </g>
 </g>
</svg>
